<svg xmlns="http://www.w3.org/2000/svg" viewBox="0 0 190 60" width="190" height="60" role="img" aria-label="Syrup">
<defs>
<pattern id="shade" width="5" height="5" patternUnits="userSpaceOnUse">
<rect width="2.5" height="2.5" fill="#e6edf3"/>
<rect x="2.5" y="2.5" width="2.5" height="2.5" fill="#e6edf3"/>
</pattern>
</defs>
<rect x="40" y="0" width="10" height="20" fill="url(#shade)"/>
<rect x="60" y="0" width="10" height="20" fill="url(#shade)"/>
<rect x="0" y="0" width="10" height="20" fill="#e6edf3"/>
<rect x="10" y="0" width="20" height="10" fill="#e6edf3"/>
<rect x="80" y="0" width="10" height="20" fill="#e6edf3"/>
<rect x="90" y="0" width="20" height="10" fill="#e6edf3"/>
<rect x="120" y="0" width="10" height="20" fill="#e6edf3"/>
<rect x="140" y="0" width="10" height="20" fill="#e6edf3"/>
<rect x="160" y="0" width="10" height="20" fill="#e6edf3"/>
<rect x="170" y="0" width="10" height="10" fill="#e6edf3"/>
<rect x="180" y="0" width="10" height="20" fill="#e6edf3"/>
<rect x="0" y="20" width="20" height="10" fill="#e6edf3"/>
<rect x="20" y="20" width="10" height="20" fill="#e6edf3"/>
<rect x="40" y="20" width="10" height="10" fill="#e6edf3"/>
<rect x="50" y="20" width="10" height="20" fill="#e6edf3"/>
<rect x="60" y="20" width="10" height="10" fill="#e6edf3"/>
<rect x="80" y="20" width="10" height="20" fill="#e6edf3"/>
<rect x="120" y="20" width="10" height="20" fill="#e6edf3"/>
<rect x="140" y="20" width="10" height="20" fill="#e6edf3"/>
<rect x="160" y="20" width="10" height="20" fill="#e6edf3"/>
<rect x="170" y="20" width="20" height="10" fill="#e6edf3"/>
<rect x="0" y="40" width="30" height="10" fill="#e6edf3"/>
<rect x="50" y="40" width="10" height="10" fill="#e6edf3"/>
<rect x="80" y="40" width="10" height="10" fill="#e6edf3"/>
<rect x="120" y="40" width="30" height="10" fill="#e6edf3"/>
<rect x="160" y="40" width="10" height="10" fill="#e6edf3"/>
</svg>
